<?xml version="1.0" encoding="iso-8859-1"?>
<!-- Generator: Adobe Illustrator 16.0.0, SVG Export Plug-In . SVG Version: 6.00 Build 0)  -->
<!DOCTYPE svg PUBLIC "-//W3C//DTD SVG 1.1//EN" "http://www.w3.org/Graphics/SVG/1.1/DTD/svg11.dtd">
<svg xmlns="http://www.w3.org/2000/svg" xmlns:xlink="http://www.w3.org/1999/xlink" version="1.1" id="Capa_1" x="0px" y="0px" width="512px" height="512px" viewBox="0 0 352.647 352.647" style="enable-background:new 0 0 352.647 352.647;" xml:space="preserve">
<g>
	<g>
		<path d="M73.863,92.865c-11.688,0-21.159,9.467-21.159,21.155s9.471,21.156,21.159,21.156c11.69,0,21.159-9.468,21.159-21.156    S85.553,92.865,73.863,92.865z M73.863,123.219c-5.082,0-9.197-4.117-9.197-9.198c0-5.082,4.115-9.197,9.197-9.197    c5.081,0,9.2,4.115,9.2,9.197C83.063,119.101,78.943,123.219,73.863,123.219z" fill="#262626"/>
		<path d="M197.258,202.425h9.084h79.423h5.792c9.433,0,17.15-7.719,17.15-17.152V84.084c0-9.432-7.718-17.15-17.15-17.15H214.41    c-9.434,0-18.695,7.563-20.581,16.805l-10.291,37.568c-1.888,9.244-3.432,24.523-3.432,33.957v30.008    C180.105,194.706,187.824,202.425,197.258,202.425z M192.973,126.655l9.221-36.793c1.292-6.957,8.137-12.648,15.212-12.648h67.919    c7.075,0,12.864,5.789,12.864,12.864v36.361c0,7.075-5.789,12.864-12.864,12.864h-73.915l6.334-15.002    c1.105-2.619-0.12-5.637-2.738-6.742c-2.619-1.105-5.637,0.121-6.741,2.738l-7.854,18.604    C195.108,137.507,191.881,132.542,192.973,126.655z" fill="#262626"/>
		<circle cx="177.087" cy="249.733" r="16.105" fill="#262626"/>
		<circle cx="244.372" cy="249.733" r="16.105" fill="#262626"/>
		<circle cx="311.657" cy="249.733" r="16.105" fill="#262626"/>
		<path d="M340.612,214.946c-8.047-5.97-16.852-5.906-26.218-5.906c-26.989,0-53.979,0-80.969,0c-22.189,0-44.382,0-66.572,0    c-16.514,0-30.688,12.736-30.688,29.676c0,5.707,0,11.414,0,17.121c0,10.098,4.97,18.768,12.959,24.695    c7.624,5.653,16.798,5.17,25.696,5.17c11.618,0,23.235,0,34.854,0c29.757,0,59.513,0,89.268,0c7.648,0,15.3,0,22.949,0    c16.604,0,29.93-12.424,30.659-29.043c0.02-0.184,0.029-0.371,0.029-0.567C352.579,241.067,354.282,225.088,340.612,214.946z     M343.027,256.092c-0.293,11.121-8.938,19.767-20.06,20.06c-1.5,0.039-3.006,0-4.506,0c-10.057,0-20.114,0-30.172,0    c-30.077,0-60.153,0-90.231,0c-9.588,0-19.176,0-28.764,0c-2.478,0-4.946,0.086-7.394-0.369    c-9.672-1.797-16.184-10.666-16.184-20.248c0-5.627,0-11.256,0-16.883c0-11.123,9.158-19.771,20.059-20.059    c5.563-0.146,11.151,0,16.716,0c28.93,0,57.859,0,86.789,0c12.926,0,25.853,0,38.779,0c6.062,0,12.773-0.748,18.783,0.368    c9.674,1.796,16.185,10.665,16.185,20.247C343.027,244.837,343.027,250.464,343.027,256.092z" fill="#262626"/>
		<path d="M73.863,109.25c-2.631,0-4.771,2.14-4.771,4.771c0,2.631,2.14,4.771,4.771,4.771s4.773-2.141,4.773-4.771    C78.636,111.391,76.494,109.25,73.863,109.25z" fill="#262626"/>
		<path d="M165.117,179.896C165.117,179.896,165.118,179.896,165.117,179.896c3.208,0,6.1-2.359,7.197-5.874    c1.138-3.643-0.079-7.235-3.172-9.375L98.93,116.079c-0.47,5.766-2.887,10.986-6.598,15l68.499,47.381    C162.208,179.413,163.65,179.896,165.117,179.896z" fill="#262626"/>
		<path d="M47.168,209.208c-3.816-9.721-6.452-29.551-7.677-40.422l21.479-33.174c-4.932-2.955-8.772-7.549-10.763-13.025    l-26.763,41.334c-8.178,12.504-28.171,45.547-22.421,61.662c8.538,23.932,43.587,31.375,64.191,31.297    c7.918-0.031,12.319-3.297,7.101-9.719C72.315,247.161,52.79,223.528,47.168,209.208z" fill="#262626"/>
	</g>
</g>
<g>
</g>
<g>
</g>
<g>
</g>
<g>
</g>
<g>
</g>
<g>
</g>
<g>
</g>
<g>
</g>
<g>
</g>
<g>
</g>
<g>
</g>
<g>
</g>
<g>
</g>
<g>
</g>
<g>
</g>
</svg>
